# xmcd CD database file generated by Grip 2.96
# 
# Track frame offsets:
#       150
#       5940
#       49592
#       97302
#       149155
#       213162
#       253660
# 
# Disc length: 4007 seconds
# 
# Revision: 0
# Processed by: cddbd v1.4PL0 Copyright (c) Steve Scherf et al.
# Submitted via: Grip 2.96
# 
DISCID=6c0fa507
DTITLE=Blue Monday - Live at Norma's
DYEAR=1900
DGENRE=
TTITLE0=Intro
TTITLE1=Muddy Water
TTITLE2=Riot Goin' On
TTITLE3=Trouble Makin' Woman
TTITLE4=Could This Be Real?
TTITLE5=Ain't No Way
TTITLE6=Bare Footin'
EXTD=
EXTT0=
EXTT1=
EXTT2=
EXTT3=
EXTT4=
EXTT5=
EXTT6=
PLAYORDER=
